# xmcd
#
# Track frame offsets:
#	150
#	13702
#	27495
#	43805
#	57252
#	71662
#	85165
#	101777
#	113077
#	128985
#
# Disc length: 1903 seconds
#
# Revision: 2952235472
# Processed by: cddbd v1.5.2PL0 Copyright (c) Steve Scherf et al.
# Submitted via: EZCDAudioConverter 9.1.1.1
#
DISCID=89076d0a
DTITLE=Randal Max Mower - Counting Down The Days
DYEAR=1993
DGENRE=Country
TTITLE0=Counting Down The Days
TTITLE1=I Don't Want To Hurt Her
TTITLE2=Still My Country Girl
TTITLE3=Bands Of Gold
TTITLE4=Dang I Got A Thang
TTITLE5=Turning Heads Tonight
TTITLE6=Alone With Lonliness
TTITLE7=1-800-Luv
TTITLE8=Everything Is All I Need
TTITLE9=I Was Leaving You Already
EXTD=
EXTT0=
EXTT1=
EXTT2=
EXTT3=
EXTT4=
EXTT5=
EXTT6=
EXTT7=
EXTT8=
EXTT9=
PLAYORDER=
